<svg id="visual" viewBox="0 0 960 540" width="960" height="540" xmlns="http://www.w3.org/2000/svg" xmlns:xlink="http://www.w3.org/1999/xlink" version="1.1"><path d="M0 275L5.2 277.3C10.3 279.7 20.7 284.3 31 279.2C41.3 274 51.7 259 62 264.2C72.3 269.3 82.7 294.7 93 298.8C103.3 303 113.7 286 124 268.8C134.3 251.7 144.7 234.3 155 230.3C165.3 226.3 175.7 235.7 186 250C196.3 264.3 206.7 283.7 217 282C227.3 280.3 237.7 257.7 248 252.5C258.3 247.3 268.7 259.7 279 265.7C289.3 271.7 299.7 271.3 310 269.3C320.3 267.3 330.7 263.7 341 259.5C351.3 255.3 361.7 250.7 372 257.2C382.3 263.7 392.7 281.3 403 288.7C413.3 296 423.7 293 434 296.5C444.3 300 454.7 310 464.8 301.8C475 293.7 485 267.3 495.2 252.5C505.3 237.7 515.7 234.3 526 247.2C536.3 260 546.7 289 557 298.7C567.3 308.3 577.7 298.7 588 292.2C598.3 285.7 608.7 282.3 619 283.2C629.3 284 639.7 289 650 279.8C660.3 270.7 670.7 247.3 681 251.5C691.3 255.7 701.7 287.3 712 288.2C722.3 289 732.7 259 743 242C753.3 225 763.7 221 774 227.2C784.3 233.3 794.7 249.7 805 249.5C815.3 249.3 825.7 232.7 836 233.5C846.3 234.3 856.7 252.7 867 254.3C877.3 256 887.7 241 898 245.5C908.3 250 918.7 274 929 281.2C939.3 288.3 949.7 278.7 954.8 273.8L960 269L960 541L954.8 541C949.7 541 939.3 541 929 541C918.7 541 908.3 541 898 541C887.7 541 877.3 541 867 541C856.7 541 846.3 541 836 541C825.7 541 815.3 541 805 541C794.7 541 784.3 541 774 541C763.7 541 753.3 541 743 541C732.7 541 722.3 541 712 541C701.7 541 691.3 541 681 541C670.7 541 660.3 541 650 541C639.7 541 629.3 541 619 541C608.7 541 598.3 541 588 541C577.7 541 567.3 541 557 541C546.7 541 536.3 541 526 541C515.7 541 505.3 541 495.2 541C485 541 475 541 464.8 541C454.7 541 444.3 541 434 541C423.7 541 413.3 541 403 541C392.7 541 382.3 541 372 541C361.7 541 351.3 541 341 541C330.7 541 320.3 541 310 541C299.7 541 289.3 541 279 541C268.7 541 258.3 541 248 541C237.7 541 227.3 541 217 541C206.7 541 196.3 541 186 541C175.7 541 165.3 541 155 541C144.7 541 134.3 541 124 541C113.7 541 103.3 541 93 541C82.7 541 72.3 541 62 541C51.7 541 41.3 541 31 541C20.7 541 10.3 541 5.2 541L0 541Z" fill="#4d00ff" stroke-linecap="round" stroke-linejoin="miter"></path></svg>